<?xml version="1.0" encoding="UTF-8" standalone="no"?>
<!-- Created with Inkscape (http://www.inkscape.org/) -->

<svg
   xmlns:dc="http://purl.org/dc/elements/1.1/"
   xmlns:cc="http://creativecommons.org/ns#"
   xmlns:rdf="http://www.w3.org/1999/02/22-rdf-syntax-ns#"
   xmlns:svg="http://www.w3.org/2000/svg"
   xmlns="http://www.w3.org/2000/svg"
   xmlns:sodipodi="http://sodipodi.sourceforge.net/DTD/sodipodi-0.dtd"
   xmlns:inkscape="http://www.inkscape.org/namespaces/inkscape"
   width="357.50269"
   height="327.22165"
   id="svg2"
   version="1.1"
   inkscape:version="0.48.2 r9819"
   sodipodi:docname="squatconf_level.svg">
  <defs
     id="defs4" />
  <sodipodi:namedview
     id="base"
     pagecolor="#ffffff"
     bordercolor="#666666"
     borderopacity="1.0"
     inkscape:pageopacity="0.0"
     inkscape:pageshadow="2"
     inkscape:zoom="0.70656276"
     inkscape:cx="341.25813"
     inkscape:cy="64.817473"
     inkscape:document-units="px"
     inkscape:current-layer="layer1"
     showgrid="false"
     inkscape:window-width="1364"
     inkscape:window-height="766"
     inkscape:window-x="127"
     inkscape:window-y="458"
     inkscape:window-maximized="0"
     fit-margin-top="0"
     fit-margin-left="0"
     fit-margin-right="0"
     fit-margin-bottom="0" />
  <metadata
     id="metadata7">
    <rdf:RDF>
      <cc:Work
         rdf:about="">
        <dc:format>image/svg+xml</dc:format>
        <dc:type
           rdf:resource="http://purl.org/dc/dcmitype/StillImage" />
        <dc:title />
      </cc:Work>
    </rdf:RDF>
  </metadata>
  <g
     inkscape:label="Layer 1"
     inkscape:groupmode="layer"
     id="layer1"
     transform="translate(-181.90625,-55.15625)">
    <g
       id="logo"
       inkscape:label="#g3170">
      <path
         inkscape:connector-curvature="0"
         id="path3775"
         d="m 348.91431,55.376724 c -0.52253,8.63486 -2.01839,13.36128 -1.49437,19.23183 -6.95049,-0.57945 -8.13741,7.14655 -8.44641,17.73747 6.81195,10.057006 0.40281,29.593966 1.10453,38.073836 0.6023,10.56967 -3.83221,28.92102 -3.31359,42.88179 -1.52816,13.43763 -1.52381,26.08525 -4.74299,39.24334 -0.63887,12.86918 -8.60767,6.60632 -12.99448,10.72045 4.31579,8.77011 2.34472,20.88609 -0.7147,28.9777 -1.47917,8.04585 -5.57077,12.7474 -10.72045,22.87029 3.22708,13.44272 -26.10841,1.87351 -12.86454,13.57923 -7.32348,-2.7117 0.11872,9.47284 -5.97746,13.83913 -7.89636,12.11782 -17.83244,23.41803 -25.72908,35.86477 -4.11494,13.20161 -18.31968,20.22231 -21.63581,33.33085 2.6847,1.63851 7.29061,0.35015 13.25437,1.03956 12.45996,2.52318 33.029,6.30881 30.34212,-13.12443 6.11269,-10.86519 11.15633,-21.82287 17.99736,-32.16134 10.63822,-8.79785 25.1122,-10.07994 37.87892,-12.27979 12.03466,-5.5931 24.17556,0.92477 35.28002,4.22321 12.47452,1.34421 24.07391,8.7173 34.04555,16.11316 8.61738,10.41579 12.50189,24.29432 17.08774,36.77438 13.79902,-2.72293 27.01869,1.28771 40.9976,2.14409 -1.20839,-11.04481 -14.08561,-20.80859 -19.36178,-31.51162 -3.86425,-5.49342 -7.1408,-10.91518 -12.47471,-15.33349 -6.83192,-5.28019 -10.07155,-13.63894 -16.30808,-19.29681 -14.56822,-2.57924 2.74827,-27.14508 -10.65547,-23.45504 11.42061,-7.79579 1.51372,-2.76148 -8.05658,-4.28818 -8.50814,-7.52854 -9.10167,-23.72447 -17.6725,-33.65571 -8.90315,-21.68615 11.61919,-21.7931 -9.16111,-27.80819 -5.0071,-7.61751 -4.71804,-20.98316 -8.7063,-31.18676 -1.04946,-10.86154 -1.71902,-26.57089 -3.3136,-36.31958 -1.1544,-9.14552 -9.82468,-51.08454 -4.02829,-58.280256 4.73274,-9.37087 1.36906,-19.58283 -7.92663,-18.842 0.0904,-2.73945 0.37859,-10.20826 -1.68928,-19.10189 z M 362.8184,241.2628 c 0.22182,-0.0231 0.40651,0.0166 0.51978,0.12995 3.71054,3.71053 3.29133,18.81973 5.97747,21.50587 1.31826,1.31826 2.45855,19.87118 7.14696,24.55957 0.0393,0.0393 2.16962,2.34701 3.57348,3.57348 0.69861,-0.099 1.23448,-0.0145 1.23448,0.58475 0,0.46622 -0.533,0.0281 -1.23448,-0.58475 -0.92651,0.1314 -2.12855,0.58475 -2.92375,0.58475 -4.23704,0 -7.53473,1.16951 -10.78543,1.16951 -8.28767,0 -17.23457,0.64972 -25.72907,0.64972 -2.32364,0 -10.88826,-1.06667 -12.53968,0.58475 -0.10541,0.10541 -2.40537,1.04441 -3.24862,1.49437 0.14741,-0.53633 -0.17589,-1.64342 0.25989,-2.07912 1.72887,-1.72887 2.2853,-4.05083 3.57348,-6.62719 0.64183,-1.28364 0.41011,-4.50334 1.23448,-5.32773 5.4549,-5.4549 10.08546,-37.97647 12.53968,-37.684 5.68725,1.13744 13.70086,0.58891 18.51713,-1.81923 0.22629,-0.11311 1.21872,-0.64565 1.8842,-0.7147 z m -38.00886,54.31694 c -0.0566,0.13431 -0.15032,0.19481 -0.32486,0.19481 -0.0869,0 0.12641,-0.0859 0.32486,-0.19481 z"
         style="fill:#ff0000;stroke:#ffffff;stroke-width:2.0791173px;stroke-linecap:butt;stroke-linejoin:miter;stroke-opacity:0" />
      <path
         inkscape:connector-curvature="0"
         id="path3820"
         d="m 182.94575,267.22289 c 0.0253,-3.53076 2.74979,-3.46067 4.26585,-5.54586 7.88288,-10.84224 23.00656,-7.9664 34.45138,-9.77516 14.09338,-2.22736 26.53001,-5.30933 41.88736,-5.53739 3.12667,-0.0464 6.52335,-2.55457 9.60303,-2.6003 3.68629,-0.0547 7.52089,-0.91796 11.13199,-1.48867 1.74873,-0.27639 3.84859,-1.94768 5.64225,-1.97432 2.96374,-0.044 6.16595,-1.41493 9.24186,-1.46061 13.42469,-0.19935 27.04859,-3.0484 41.16498,-3.25803 5.41684,-0.0804 10.79964,-2.42899 15.8432,-2.5039 10.01827,-0.14878 20.77155,1.20395 31.02018,1.05176 5.54089,-0.0823 10.80675,-1.6729 16.23245,-1.75347 5.47985,-0.0814 10.94289,1.11426 16.46918,1.4569 7.46401,0.46279 14.72749,-1.55627 22.29201,-1.08726 15.9578,0.98943 32.13132,3.59007 48.08726,4.57936 4.76398,0.29537 9.77168,1.55637 14.57907,1.48498 8.62907,-0.12817 28.86799,-3.09744 33.35567,5.55433 2.33865,4.50866 -17.30054,6.49564 -18.99744,6.52083 -2.71607,0.0403 -5.4193,2.34911 -8.28278,2.39162 -4.44692,0.066 -10.17337,4.87739 -14.10562,4.93578 -6.62644,0.0984 -14.20213,3.59778 -20.91561,4.6588 -1.13842,0.17993 -2.38403,1.35878 -3.57155,1.37641 -9.32416,0.13846 -18.49009,3.6471 -27.93424,3.06156 -13.68304,-0.84839 -27.71445,-1.47896 -41.6104,-1.27261 -15.96788,0.23713 -31.81118,-2.55064 -47.64186,-0.0487 -3.35347,0.53 -6.95413,-1.40914 -10.22903,-1.36051 -8.13134,0.12076 -15.95068,2.31644 -23.97347,2.43558 -3.40074,0.0505 -7.43984,-2.07197 -10.79885,-1.5411 -4.52411,0.71499 -10.15614,1.47418 -14.91218,1.54481 -6.1104,0.0907 -12.71697,-1.77925 -18.53986,-0.859 -9.94914,1.5724 -31.36708,2.93751 -39.21876,7.01018 -0.0718,0.0373 -23.89697,-0.28298 -27.03131,0.21238 -3.44388,0.54427 -6.48176,2.10698 -9.60305,2.60029 -0.88018,0.13909 -1.96901,-1.04208 -2.84918,-0.90295 -1.26038,0.19919 -8.76773,0.80315 -9.45053,0.14034 -2.78018,-2.69881 -1.93564,-5.03603 -5.602,-8.04606 z"
         style="fill:#ff0000;fill-opacity:1;stroke:#ffffff;stroke-width:2.0791173px;stroke-linecap:butt;stroke-linejoin:miter;stroke-opacity:0" />
      <path
         inkscape:connector-curvature="0"
         id="path3835"
         d="m 348.32956,140.94539 c -10.66037,0.0817 -21.01707,3.54099 -30.66699,8.44641 -14.13764,7.70147 -28.24786,15.46487 -41.06256,25.2093 -9.79435,12.23394 -20.35165,22.98082 -30.40709,35.15008 -8.39427,12.32287 -10.19516,27.91568 -19.03692,40.08798 -6.47604,18.02401 -2.55054,38.07315 8.05658,53.66722 6.64885,13.94455 10.49089,30.08235 24.42963,39.04842 14.33692,7.06378 22.20514,25.56175 39.82809,25.85902 18.64854,3.95425 38.12109,19.02255 57.95539,10.20067 15.92752,-6.42788 33.25752,-0.89097 49.24909,-6.62719 18.84693,-3.48088 31.76493,-19.5138 43.27163,-33.52576 9.32092,-17.0039 19.95959,-33.52425 22.54543,-53.27739 7.06004,-19.76868 4.79746,-41.31532 -0.97458,-60.87915 1.87455,-16.52667 -9.73268,-28.30394 -19.68665,-39.37328 -9.96737,-12.23627 -26.39988,-15.8513 -36.31958,-28.13306 -15.52838,-12.30384 -37.10852,-14.62534 -56.39605,-14.74874 -3.60758,-0.78146 -7.23196,-1.13174 -10.78542,-1.10453 z m -5.45769,36.44953 c 11.26287,-0.24438 22.56115,3.39715 33.9156,2.98873 17.66435,1.23657 27.6653,9.90319 42.68688,20.85614 12.1618,11.59984 24.78173,31.7853 27.22344,49.18412 2.79795,16.75365 -0.78486,27.14271 -8.44641,41.32246 -3.50965,14.81853 -17.03803,23.21648 -23.58499,36.44952 -6.79996,12.87862 -20.97731,17.21368 -33.52576,22.22057 -18.84113,10.29754 -41.46785,4.56713 -59.44977,-4.74299 -21.02671,-4.07149 -41.4614,-16.01369 -53.40732,-34.17549 -5.44679,-14.87691 -9.88069,-30.45977 -11.76001,-46.26036 1.09172,-12.72698 4.85457,-25.63302 11.63006,-36.5145 4.65879,-11.01562 11.37851,-21.3445 21.63582,-27.93813 2.20673,-1.29758 4.61458,-2.33939 6.88707,-3.50851 11.05818,-7.14327 21.69079,-15.45681 34.95516,-18.06234 3.74537,-1.24331 7.48595,-1.73776 11.24023,-1.81922 z"
         style="fill:#ff0000;fill-opacity:1;stroke:#ffffff;stroke-width:2.0791173px;stroke-linecap:butt;stroke-linejoin:miter;stroke-opacity:0" />
    </g>
  </g>
</svg>
