<?xml version="1.0" encoding="UTF-8" standalone="no"?>
<!-- Created with Inkscape (http://www.inkscape.org/) -->

<svg
   xmlns:dc="http://purl.org/dc/elements/1.1/"
   xmlns:cc="http://creativecommons.org/ns#"
   xmlns:rdf="http://www.w3.org/1999/02/22-rdf-syntax-ns#"
   xmlns:svg="http://www.w3.org/2000/svg"
   xmlns="http://www.w3.org/2000/svg"
   xmlns:sodipodi="http://sodipodi.sourceforge.net/DTD/sodipodi-0.dtd"
   xmlns:inkscape="http://www.inkscape.org/namespaces/inkscape"
   width="335"
   height="328"
   id="svg2"
   version="1.1"
   inkscape:version="0.48.2 r9819"
   sodipodi:docname="squatconf.svg">
  <defs
     id="defs4" />
  <sodipodi:namedview
     id="base"
     pagecolor="#ffffff"
     bordercolor="#666666"
     borderopacity="1.0"
     inkscape:pageopacity="0.0"
     inkscape:pageshadow="2"
     inkscape:zoom="0.24980766"
     inkscape:cx="437.80526"
     inkscape:cy="-160.21562"
     inkscape:document-units="px"
     inkscape:current-layer="layer1"
     showgrid="false"
     inkscape:window-width="681"
     inkscape:window-height="766"
     inkscape:window-x="683"
     inkscape:window-y="0"
     inkscape:window-maximized="0"
     fit-margin-top="0"
     fit-margin-left="0"
     fit-margin-right="0"
     fit-margin-bottom="0" />
  <metadata
     id="metadata7">
    <rdf:RDF>
      <cc:Work
         rdf:about="">
        <dc:format>image/svg+xml</dc:format>
        <dc:type
           rdf:resource="http://purl.org/dc/dcmitype/StillImage" />
        <dc:title />
      </cc:Work>
    </rdf:RDF>
  </metadata>
  <g
     inkscape:label="Layer 1"
     inkscape:groupmode="layer"
     id="layer1"
     transform="translate(-192.92211,-54.377899)">
    <g
       id="logo"
       inkscape:label="#g3257">
      <path
         inkscape:connector-curvature="0"
         id="path3775"
         d="m 348.91431,55.376724 c -0.52253,8.63486 -2.01839,13.36128 -1.49437,19.23183 -6.95049,-0.57945 -8.13741,7.14655 -8.44641,17.73747 6.81195,10.057006 0.40281,29.593966 1.10453,38.073836 0.6023,10.56967 -3.83221,28.92102 -3.31359,42.88179 -1.52816,13.43763 -1.52381,26.08525 -4.74299,39.24334 -0.63887,12.86918 -8.60767,6.60632 -12.99448,10.72045 4.31579,8.77011 2.34472,20.88609 -0.7147,28.9777 -1.47917,8.04585 -5.57077,12.7474 -10.72045,22.87029 3.22708,13.44272 -26.10841,1.87351 -12.86454,13.57923 -7.32348,-2.7117 0.11872,9.47284 -5.97746,13.83913 -7.89636,12.11782 -17.83244,23.41803 -25.72908,35.86477 -4.11494,13.20161 -18.31968,20.22231 -21.63581,33.33085 2.6847,1.63851 7.29061,0.35015 13.25437,1.03956 12.45996,2.52318 33.029,6.30881 30.34212,-13.12443 6.11269,-10.86519 11.15633,-21.82287 17.99736,-32.16134 10.63822,-8.79785 25.1122,-10.07994 37.87892,-12.27979 12.03466,-5.5931 24.17556,0.92477 35.28002,4.22321 12.47452,1.34421 24.07391,8.7173 34.04555,16.11316 8.61738,10.41579 12.50189,24.29432 17.08774,36.77438 13.79902,-2.72293 27.01869,1.28771 40.9976,2.14409 -1.20839,-11.04481 -14.08561,-20.80859 -19.36178,-31.51162 -3.86425,-5.49342 -7.1408,-10.91518 -12.47471,-15.33349 -6.83192,-5.28019 -10.07155,-13.63894 -16.30808,-19.29681 -14.56822,-2.57924 2.74827,-27.14508 -10.65547,-23.45504 11.42061,-7.79579 1.51372,-2.76148 -8.05658,-4.28818 -8.50814,-7.52854 -9.10167,-23.72447 -17.6725,-33.65571 -8.90315,-21.68615 11.61919,-21.7931 -9.16111,-27.80819 -5.0071,-7.61751 -4.71804,-20.98316 -8.7063,-31.18676 -1.04946,-10.86154 -1.71902,-26.57089 -3.3136,-36.31958 -1.1544,-9.14552 -9.82468,-51.08454 -4.02829,-58.280256 4.73274,-9.37087 1.36906,-19.58283 -7.92663,-18.842 0.0904,-2.73945 0.37859,-10.20826 -1.68928,-19.10189 z M 362.8184,241.2628 c 0.22182,-0.0231 0.40651,0.0166 0.51978,0.12995 3.71054,3.71053 3.29133,18.81973 5.97747,21.50587 1.31826,1.31826 2.45855,19.87118 7.14696,24.55957 0.0393,0.0393 2.16962,2.34701 3.57348,3.57348 0.69861,-0.099 1.23448,-0.0145 1.23448,0.58475 0,0.46622 -0.533,0.0281 -1.23448,-0.58475 -0.92651,0.1314 -2.12855,0.58475 -2.92375,0.58475 -4.23704,0 -7.53473,1.16951 -10.78543,1.16951 -8.28767,0 -17.23457,0.64972 -25.72907,0.64972 -2.32364,0 -10.88826,-1.06667 -12.53968,0.58475 -0.10541,0.10541 -2.40537,1.04441 -3.24862,1.49437 0.14741,-0.53633 -0.17589,-1.64342 0.25989,-2.07912 1.72887,-1.72887 2.2853,-4.05083 3.57348,-6.62719 0.64183,-1.28364 0.41011,-4.50334 1.23448,-5.32773 5.4549,-5.4549 10.08546,-37.97647 12.53968,-37.684 5.68725,1.13744 13.70086,0.58891 18.51713,-1.81923 0.22629,-0.11311 1.21872,-0.64565 1.8842,-0.7147 z m -38.00886,54.31694 c -0.0566,0.13431 -0.15032,0.19481 -0.32486,0.19481 -0.0869,0 0.12641,-0.0859 0.32486,-0.19481 z"
         style="fill:#ff0000;stroke:#ffffff;stroke-width:2.0791173px;stroke-linecap:butt;stroke-linejoin:miter;stroke-opacity:0" />
      <path
         inkscape:connector-curvature="0"
         id="path3820"
         d="m 194.16939,320.30664 c -1.04251,-3.37343 1.57582,-4.12969 2.39109,-6.57546 4.23903,-12.7171 19.52486,-14.54459 29.88847,-19.72639 12.76196,-6.38098 23.68639,-13.07613 38.25726,-17.93309 2.96655,-0.98885 5.44679,-4.40595 8.36876,-5.37993 3.49751,-1.16582 6.89215,-3.14718 10.1621,-4.78216 1.58352,-0.79177 3.08036,-3.01935 4.78216,-3.58662 2.81196,-0.93731 5.45038,-3.21159 8.36876,-4.18439 12.73719,-4.24572 24.86379,-11.07751 38.25725,-15.542 5.13943,-1.71313 9.5612,-5.57813 14.34647,-7.17323 9.50521,-3.16841 20.1647,-5.12752 29.88848,-8.36878 5.25713,-1.75236 9.7964,-4.85952 14.94424,-6.57546 5.19922,-1.73307 10.7682,-2.24372 16.13979,-3.58662 7.25506,-1.81376 13.56917,-5.93282 20.92193,-7.77101 15.51107,-3.87776 31.71454,-6.28476 47.2238,-10.16208 4.63061,-1.15766 9.78528,-1.46844 14.34647,-2.98884 8.18715,-2.72907 26.58335,-11.67391 33.4751,-4.78216 3.59147,3.59147 -14.52979,11.41873 -16.13979,11.95539 -2.57697,0.85898 -4.4564,3.87655 -7.17323,4.78215 -4.21919,1.4064 -8.22453,7.72293 -11.9554,8.96655 -6.28709,2.09569 -12.45161,7.72022 -18.53086,10.75985 -1.03087,0.51545 -1.86214,2.01552 -2.98884,2.39109 -8.84666,2.94887 -16.52432,9.06266 -25.70408,11.35761 -13.29999,3.32499 -26.86627,6.96286 -40.05058,11.35762 -15.15013,5.05005 -31.09534,7.1789 -45.43048,14.34647 -3.03666,1.51834 -7.0549,0.75759 -10.16208,1.79332 -7.71492,2.57164 -14.50557,7.027 -22.11749,9.56431 -3.22658,1.07553 -7.71816,0.27247 -10.75984,1.79331 -4.09672,2.04834 -9.23623,4.47353 -13.74871,5.97769 -5.79747,1.93249 -12.66028,2.14577 -17.93307,4.78215 -9.00923,4.50462 -29.014,12.27644 -35.26842,18.53086 -0.0572,0.0572 -22.86586,6.94966 -25.70409,8.36878 -3.11853,1.55926 -5.54236,3.96671 -8.36878,5.37993 -0.79703,0.3985 -2.19182,-0.39853 -2.98883,0 -1.14131,0.57065 -8.11542,3.41441 -8.96655,2.98885 -3.4656,-1.7328 -3.36661,-4.21595 -7.77101,-5.97771 z"
         style="fill:#ff0000;fill-opacity:1;stroke:#ffffff;stroke-width:2.0791173px;stroke-linecap:butt;stroke-linejoin:miter;stroke-opacity:0" />
      <path
         inkscape:connector-curvature="0"
         id="path3835"
         d="m 348.32956,140.94539 c -10.66037,0.0817 -21.01707,3.54099 -30.66699,8.44641 -14.13764,7.70147 -28.24786,15.46487 -41.06256,25.2093 -9.79435,12.23394 -20.35165,22.98082 -30.40709,35.15008 -8.39427,12.32287 -10.19516,27.91568 -19.03692,40.08798 -6.47604,18.02401 -2.55054,38.07315 8.05658,53.66722 6.64885,13.94455 10.49089,30.08235 24.42963,39.04842 14.33692,7.06378 22.20514,25.56175 39.82809,25.85902 18.64854,3.95425 38.12109,19.02255 57.95539,10.20067 15.92752,-6.42788 33.25752,-0.89097 49.24909,-6.62719 18.84693,-3.48088 31.76493,-19.5138 43.27163,-33.52576 9.32092,-17.0039 19.95959,-33.52425 22.54543,-53.27739 7.06004,-19.76868 4.79746,-41.31532 -0.97458,-60.87915 1.87455,-16.52667 -9.73268,-28.30394 -19.68665,-39.37328 -9.96737,-12.23627 -26.39988,-15.8513 -36.31958,-28.13306 -15.52838,-12.30384 -37.10852,-14.62534 -56.39605,-14.74874 -3.60758,-0.78146 -7.23196,-1.13174 -10.78542,-1.10453 z m -5.45769,36.44953 c 11.26287,-0.24438 22.56115,3.39715 33.9156,2.98873 17.66435,1.23657 27.6653,9.90319 42.68688,20.85614 12.1618,11.59984 24.78173,31.7853 27.22344,49.18412 2.79795,16.75365 -0.78486,27.14271 -8.44641,41.32246 -3.50965,14.81853 -17.03803,23.21648 -23.58499,36.44952 -6.79996,12.87862 -20.97731,17.21368 -33.52576,22.22057 -18.84113,10.29754 -41.46785,4.56713 -59.44977,-4.74299 -21.02671,-4.07149 -41.4614,-16.01369 -53.40732,-34.17549 -5.44679,-14.87691 -9.88069,-30.45977 -11.76001,-46.26036 1.09172,-12.72698 4.85457,-25.63302 11.63006,-36.5145 4.65879,-11.01562 11.37851,-21.3445 21.63582,-27.93813 2.20673,-1.29758 4.61458,-2.33939 6.88707,-3.50851 11.05818,-7.14327 21.69079,-15.45681 34.95516,-18.06234 3.74537,-1.24331 7.48595,-1.73776 11.24023,-1.81922 z"
         style="fill:#ff0000;fill-opacity:1;stroke:#ffffff;stroke-width:2.0791173px;stroke-linecap:butt;stroke-linejoin:miter;stroke-opacity:0" />
    </g>
  </g>
</svg>
